<svg id="Capa_1" enable-background="new 0 0 512.004 512.004" height="512" viewBox="0 0 512.004 512.004" width="512" xmlns="http://www.w3.org/2000/svg"><g><path d="m47.501 450.309h87.126c17.57 0 34.088-6.842 46.513-19.267 9.031-9.031 145.184-145.183 198.037-198.036 2.929-2.929 2.929-7.678 0-10.606-2.93-2.929-7.678-2.929-10.607 0l-15.039 15.039v-34.539l57.112-57.113v34.54l-17.018 17.017c-2.929 2.929-2.929 7.678 0 10.606 2.93 2.929 7.678 2.929 10.607 0 19.09-19.09 59.017-59.018 102.404-102.405 7.155-7.154 7.158-18.737 0-25.894l-12.59-12.59c-7.156-7.156-18.737-7.156-25.893 0-35.586 35.586-130.493 130.493-167.812 167.812-2.929 2.929-2.929 7.678 0 10.606 2.93 2.929 7.678 2.929 10.607 0l27.58-27.581v34.54l-167.994 167.998c-9.591 9.591-22.343 14.873-35.906 14.873h-87.127c-17.921 0-32.501-14.58-32.501-32.502 0-7.016 5.929-12.55 12.943-12.056l98.646 7.013c19.031 1.357 37.686-5.608 51.178-19.101l108.392-108.392c2.929-2.929 2.929-7.678 0-10.606-2.932-2.93-7.68-2.928-10.607 0l-108.392 108.392c-10.415 10.415-24.809 15.79-39.508 14.745l-98.646-7.013c-7.476-.536-14.901 2.092-20.382 7.198s-8.624 12.33-8.624 19.82c0 26.193 21.309 47.502 47.501 47.502zm388.142-294.983-10 10v-34.539l10-10zm43.119-77.657c1.291-1.291 3.385-1.293 4.679 0l12.591 12.59c1.283 1.284 1.301 3.378-.001 4.679l-45.388 45.388v-34.54z"/><path d="m49.312 295.808c-4.019-1.006-8.091 1.433-9.099 5.451-3.203 12.776-1.079 23.701 5.983 30.763l22.037 22.037c4.936 4.936 11.683 7.454 19.63 7.454 28.065 0 63.053-30.384 72.004-60.672 4.075-13.79 2.173-25.53-5.355-33.059l-22.037-22.037c-7.528-7.529-19.268-9.431-33.059-5.355-15.076 4.455-29.431 15.079-39.998 26.885-2.763 3.086-2.5 7.828.586 10.59 3.087 2.763 7.828 2.5 10.59-.586 10.841-12.113 23.345-19.63 33.072-22.504 8.155-2.41 14.789-1.835 18.201 1.577s3.987 10.046 1.577 18.201c-2.87 9.71-9.736 20.5-18.839 29.603-19.172 19.171-40.583 24.483-47.803 17.262-4.298-4.299-3.123-12.188-2.04-16.509 1.009-4.02-1.431-8.094-5.45-9.101zm89.795-22.22 4.799 4.799c3.412 3.412 3.987 10.046 1.577 18.201-2.87 9.71-9.736 20.5-18.839 29.603s-19.893 15.969-29.603 18.838c-8.154 2.41-14.789 1.835-18.201-1.577l-4.869-4.869c28.924-5.425 59.712-36.792 65.136-64.995z"/></g></svg>