<svg id="icons" enable-background="new 0 0 64 64" height="64" viewBox="0 0 64 64" width="64" xmlns="http://www.w3.org/2000/svg"><g><g><g><path d="m13 48c-7.168 0-13-5.832-13-13s5.832-13 13-13 13 5.832 13 13-5.832 13-13 13zm0-24c-6.065 0-11 4.935-11 11 0 6.064 4.935 11 11 11s11-4.936 11-11c0-6.065-4.935-11-11-11z"/></g><g><path d="m32 55c-6.354 0-12.188-2.919-16.009-8.009-.331-.442-.242-1.069.199-1.4.444-.329 1.069-.241 1.4.199 3.439 4.582 8.691 7.21 14.41 7.21 5.721 0 10.973-2.629 14.41-7.211.331-.443.958-.531 1.398-.2.442.331.532.958.2 1.399-3.817 5.092-9.653 8.012-16.008 8.012z"/></g><g><path d="m47.21 24.609c-.306 0-.604-.138-.801-.4-2.234-2.978-5.274-5.161-8.793-6.315-.524-.172-.812-.737-.64-1.262.172-.524.738-.813 1.262-.639 3.91 1.282 7.289 3.708 9.771 7.017.332.441.242 1.068-.2 1.399-.18.135-.39.2-.599.2z"/></g><g><path d="m16.789 24.611c-.209 0-.419-.065-.599-.2-.442-.331-.532-.958-.2-1.399 2.483-3.312 5.863-5.739 9.772-7.021.531-.173 1.091.115 1.262.639.172.524-.114 1.09-.639 1.262-3.518 1.153-6.56 3.338-8.796 6.319-.195.263-.496.4-.8.4z"/></g><g><path d="m51 48c-7.168 0-13-5.832-13-13s5.832-13 13-13 13 5.832 13 13-5.832 13-13 13zm0-24c-6.064 0-11 4.935-11 11 0 6.064 4.936 11 11 11s11-4.936 11-11c0-6.065-4.936-11-11-11z"/></g><g><g><path d="m29.501 38c-.404 0-.786-.247-.937-.648l-1.501-4.002c-.193-.518.068-1.094.585-1.288.518-.19 1.094.067 1.288.584l1.501 4.002c.193.519-.068 1.095-.585 1.289-.116.042-.234.063-.351.063z"/></g><g><path d="m29.501 38c-.117 0-.235-.021-.351-.063-.518-.194-.779-.771-.586-1.287l1.5-4.002c.193-.521.774-.777 1.287-.586.518.194.779.771.586 1.288l-1.5 4.002c-.15.401-.532.648-.936.648z"/></g><g><path d="m35.501 33.998h-2c-.553 0-1-.447-1-1s.447-1 1-1h2c.554 0 1 .447 1 1s-.446 1-1 1z"/></g><g><path d="m35.502 38c-.367 0-.721-.202-.896-.553l-2-4.002c-.247-.494-.047-1.095.447-1.342.494-.245 1.096-.047 1.342.447l2 4.003c.248.493.047 1.094-.446 1.342-.144.071-.297.105-.447.105z"/></g><g><path d="m35.501 38h-2c-.553 0-1-.447-1-1s.447-1 1-1h2c.554 0 1 .447 1 1s-.446 1-1 1z"/></g></g></g><g><g><g><path d="m13 40.992c-3.309 0-6-2.689-6-5.998 0-.553.447-1 1-1s1 .447 1 1c0 2.203 1.794 3.998 4 3.998s4-1.795 4-3.998c0-.553.447-1 1-1s1 .447 1 1c0 3.309-2.691 5.998-6 5.998z"/></g><g><path d="m8 31.996c-.553 0-1-.447-1-1 0-2.757 2.243-5 5-5 .553 0 1 .447 1 1s-.447 1-1 1c-1.654 0-3 1.346-3 3 0 .553-.447 1-1 1z"/></g><g><path d="m16 27.996h-4c-.553 0-1-.447-1-1s.447-1 1-1h4c.553 0 1 .447 1 1s-.447 1-1 1z"/></g><g><path d="m16 29.994c-.553 0-1-.447-1-1v-1.998c0-.553.447-1 1-1s1 .447 1 1v1.998c0 .553-.447 1-1 1z"/></g><g><path d="m18 31.99c-.553 0-1-.447-1-1 0-.549-.447-.996-.996-.996-.553 0-1-.447-1-1s.447-1 1-1c1.652 0 2.996 1.344 2.996 2.996 0 .553-.447 1-1 1z"/></g><g><path d="m8 35.99c-.553 0-1-.447-1-1v-3.994c0-.553.447-1 1-1s1 .447 1 1v3.994c0 .553-.447 1-1 1z"/></g><g><path d="m18 35.994c-.553 0-1-.447-1-1v-4.004c0-.553.447-1 1-1s1 .447 1 1v4.004c0 .553-.447 1-1 1z"/></g><g><path d="m8.001 33.996c-.367 0-.72-.202-.896-.553-.247-.494-.047-1.095.447-1.342l2-1c.494-.246 1.095-.047 1.342.447s.047 1.095-.447 1.343l-2 1c-.143.071-.296.105-.446.105z"/></g><g><path d="m13 33.994c-2.346 0-3.574-1.158-3.706-1.29-.392-.391-.392-1.023-.002-1.414.387-.389 1.014-.393 1.404-.012.049.045.804.716 2.304.716 1.518 0 2.271-.691 2.303-.721.397-.375 1.028-.365 1.408.026.381.392.383 1.01-.003 1.396-.132.134-1.36 1.299-3.708 1.299z"/></g><g><path d="m17.999 33.992c-.15 0-.303-.034-.447-.105l-2-1.002c-.493-.248-.693-.849-.446-1.343.248-.493.846-.691 1.343-.446l2 1.002c.493.248.693.849.446 1.343-.176.349-.529.551-.896.551z"/></g></g><g><path d="m11.001 42.998c-.553 0-1-.447-1-1v-2.396c0-.553.447-1 1-1s1 .447 1 1v2.396c0 .553-.447 1-1 1z"/></g><g><path d="m15 42.998c-.553 0-1-.447-1-1v-2.424c0-.553.447-1 1-1s1 .447 1 1v2.424c0 .553-.447 1-1 1z"/></g><g><g><path d="m11.001 42.998h-2c-.553 0-1-.447-1-1s.447-1 1-1h2c.553 0 1 .447 1 1s-.447 1-1 1z"/></g><g><path d="m6.011 45.756c-.026 0-.054-.001-.08-.003-.551-.044-.962-.526-.918-1.075.164-2.064 1.916-3.68 3.988-3.68.553 0 1 .447 1 1s-.447 1-1 1c-1.036 0-1.912.807-1.994 1.837-.042.522-.48.921-.996.921z"/></g></g><g><g><path d="m17 42.998h-2c-.553 0-1-.447-1-1s.447-1 1-1h2c.553 0 1 .447 1 1s-.447 1-1 1z"/></g><g><path d="m19.989 45.754c-.516 0-.954-.396-.996-.92-.082-1.029-.958-1.836-1.993-1.836-.553 0-1-.447-1-1s.447-1 1-1c2.07 0 3.821 1.613 3.987 3.676.044.551-.366 1.032-.917 1.077-.027.002-.054.003-.081.003z"/></g></g><g><path d="m13 43.996c-1.737 0-2.999-.842-2.999-2 0-.553.447-1 1-1 .478 0 .878.335.977.783.146.089.502.217 1.022.217.521 0 .877-.128 1.023-.217.099-.448.499-.783.977-.783.553 0 1 .447 1 1 0 1.158-1.262 2-3 2z"/></g></g><g><g><path d="m51 40.992c-3.309 0-6-2.689-6-5.998 0-.553.447-1 1-1s1 .447 1 1c0 2.203 1.794 3.998 4 3.998s4-1.795 4-3.998c0-.553.447-1 1-1s1 .447 1 1c0 3.309-2.691 5.998-6 5.998z"/></g><g><path d="m56 33.002c-.553 0-1-.447-1-1 0-2.204-1.794-3.998-4-3.998s-4 1.794-4 3.998c0 .553-.447 1-1 1s-1-.447-1-1c0-3.308 2.691-5.998 6-5.998s6 2.69 6 5.998c0 .553-.447 1-1 1z"/></g><g><path d="m46 35.99c-.553 0-1-.447-1-1v-2.988c0-.553.447-1 1-1s1 .447 1 1v2.988c0 .553-.447 1-1 1z"/></g><g><path d="m56 35.994c-.553 0-1-.447-1-1v-2.992c0-.553.447-1 1-1s1 .447 1 1v2.992c0 .553-.447 1-1 1z"/></g><g><path d="m46.001 33.996c-.367 0-.72-.202-.896-.553-.248-.494-.047-1.095.446-1.342l2-1c.494-.246 1.095-.047 1.343.447.246.494.047 1.095-.447 1.343l-2 1c-.142.071-.297.105-.446.105z"/></g><g><path d="m51 33.994c-2.346 0-3.574-1.158-3.706-1.29-.392-.391-.392-1.023-.002-1.414.388-.389 1.015-.393 1.403-.012.05.045.805.716 2.305.716 1.518 0 2.271-.691 2.303-.721.397-.375 1.027-.365 1.408.026s.383 1.01-.003 1.396c-.132.134-1.36 1.299-3.708 1.299z"/></g><g><path d="m55.999 33.992c-.149 0-.304-.034-.447-.105l-2-1.002c-.493-.248-.692-.849-.446-1.343.248-.493.847-.691 1.344-.446l2 1.002c.492.248.693.849.445 1.343-.176.349-.529.551-.896.551z"/></g><g><path d="m49.001 42.998c-.553 0-1-.447-1-1v-2.396c0-.553.447-1 1-1 .554 0 1 .447 1 1v2.396c0 .553-.446 1-1 1z"/></g><g><path d="m53 42.998c-.553 0-1-.447-1-1v-2.424c0-.553.447-1 1-1s1 .447 1 1v2.424c0 .553-.447 1-1 1z"/></g><g><g><path d="m49.001 42.998h-2c-.553 0-1-.447-1-1s.447-1 1-1h2c.554 0 1 .447 1 1s-.446 1-1 1z"/></g><g><path d="m44.012 45.756c-.027 0-.055-.001-.08-.003-.552-.044-.963-.526-.918-1.075.163-2.064 1.916-3.68 3.987-3.68.554 0 1 .447 1 1s-.446 1-1 1c-1.036 0-1.912.807-1.994 1.837-.042.522-.48.921-.995.921z"/></g></g><g><g><path d="m55 42.998h-2c-.553 0-1-.447-1-1s.447-1 1-1h2c.553 0 1 .447 1 1s-.447 1-1 1z"/></g><g><path d="m57.988 45.754c-.516 0-.953-.396-.995-.92-.082-1.029-.958-1.836-1.993-1.836-.553 0-1-.447-1-1s.447-1 1-1c2.07 0 3.82 1.613 3.986 3.676.045.551-.365 1.032-.916 1.077-.027.002-.054.003-.082.003z"/></g></g><g><path d="m51 43.996c-1.736 0-2.999-.842-2.999-2 0-.553.447-1 1-1 .478 0 .878.335.978.783.146.089.502.217 1.021.217.521 0 .877-.128 1.023-.217.099-.448.498-.783.977-.783.553 0 1 .447 1 1 0 1.158-1.262 2-3 2z"/></g></g><g><path d="m32 23c-3.859 0-7-3.141-7-7s3.141-7 7-7 7 3.141 7 7-3.141 7-7 7zm0-12c-2.757 0-5 2.243-5 5s2.243 5 5 5 5-2.243 5-5-2.243-5-5-5z"/></g><g><path d="m32 19c-1.654 0-3-1.346-3-3 0-.553.447-1 1-1s1 .447 1 1c0 .552.448 1 1 1s1-.448 1-1c0-.553.447-1 1-1s1 .447 1 1c0 1.654-1.346 3-3 3z"/></g><g><path d="m30 17c-.553 0-1-.447-1-1v-5.658c0-.553.447-1 1-1s1 .447 1 1v5.658c0 .553-.447 1-1 1z"/></g><g><path d="m34 17c-.553 0-1-.447-1-1v-5.658c0-.553.447-1 1-1s1 .447 1 1v5.658c0 .553-.447 1-1 1z"/></g><g><path d="m37 44.002h-10c-.553 0-1-.447-1-1s.447-1 1-1h10c.553 0 1 .447 1 1s-.447 1-1 1z"/></g><g><path d="m37 47.002h-10c-.553 0-1-.447-1-1s.447-1 1-1h10c.553 0 1 .447 1 1s-.447 1-1 1z"/></g><g><path d="m34 50.002h-4c-.553 0-1-.447-1-1s.447-1 1-1h4c.553 0 1 .447 1 1s-.447 1-1 1z"/></g><g><path d="m30.001 28.004h-1.999c-.553 0-1-.447-1-1s.447-1 1-1h1.999c.553 0 1 .447 1 1s-.447 1-1 1z"/></g><g><path d="m35.998 28.004h-1.999c-.554 0-1-.447-1-1s.446-1 1-1h1.999c.553 0 1 .447 1 1s-.447 1-1 1z"/></g></g></svg>