<?xml version="1.0" encoding="iso-8859-1"?>
<!-- Generator: Adobe Illustrator 19.0.0, SVG Export Plug-In . SVG Version: 6.00 Build 0)  -->
<svg version="1.1" id="Capa_1" xmlns="http://www.w3.org/2000/svg" xmlns:xlink="http://www.w3.org/1999/xlink" x="0px" y="0px"
	 viewBox="0 0 511.999 511.999" style="enable-background:new 0 0 511.999 511.999;" xml:space="preserve">
<g>
	<g>
		<path d="M443.688,81.795C395.598,29.993,326.818,0,256.148,0C171.74,0,92.786,41.602,44.944,111.287
			c-23.031,33.569-37.841,72.617-42.83,112.928C0.81,234.684,0.149,245.378,0.149,256c0,24.744,3.524,49.207,10.477,72.717
			c31.065,105.036,125.47,178.604,234.915,183.067c35.998,1.468,72.223-4.595,105.673-18.021c0.07-0.028,0.136-0.065,0.205-0.096
			c67.305-29.398,121.069-81.915,145.95-151.756C529.014,253.084,507.76,150.812,443.688,81.795z M308.149,22.07
			c1.199-0.211,2.402-0.42,3.613-0.621c27.241,6.433,52.766,17.403,76.099,32.689c-0.451,0.107-0.897,0.226-1.349,0.334
			c-9.425,2.094-18.765,4.806-27.995,7.624c-2.767,0.845-5.523,1.705-8.255,2.595c-3.938,1.284-6.09,5.517-4.806,9.456
			c1.284,3.939,5.516,6.087,9.456,4.806c2.736-0.89,5.48-1.747,8.232-2.585c9.775-2.977,19.764-5.664,29.758-8.001
			c1.128-0.264,2.258-0.521,3.388-0.777c2.649-0.6,5.304-1.173,7.962-1.727c24.206,18.902,44.85,42.556,60.284,69.011
			c-16.458,2.374-32.952,6.218-48.735,11.478c-59.067,19.689-114.119,54.188-158.65,97.627c-0.209,0.204-0.424,0.413-0.617,0.603
			c-11.262-3.491-44.137-14.524-81.951-34.971c-0.012-0.006-0.024-0.013-0.036-0.02c-1.661-0.916-3.331-1.816-4.989-2.739
			c0.051,0.028,3.101-4.254,3.327-4.555c15.407-20.525,33.918-38.802,53.876-54.886c20.011-16.126,41.699-30.115,64.518-41.928
			c10.799-5.59,21.854-10.774,33.132-15.328c3.831-1.575,5.66-5.958,4.084-9.789c-1.575-3.831-5.957-5.661-9.789-4.084
			c-6.958,2.86-13.842,5.903-20.641,9.124c-23.507,11.129-46.01,24.408-66.971,39.815c-17.129,12.59-33.24,26.592-47.918,41.977
			c-8.72,9.141-16.962,18.767-24.405,28.98c-0.755,1.037-1.504,2.079-2.24,3.129c-7.73-4.65-15.304-9.555-22.729-14.678
			c-10.863-7.494-21.249-15.493-31.2-24.163c-1.318-1.149-2.629-2.305-3.931-3.472c0.047-0.076,0.092-0.151,0.139-0.228
			c0.698-1.148,1.413-2.285,2.139-3.415c19.178-29.896,44.877-55.504,73.712-76.111c30.334-21.679,64.529-37.747,100.438-47.711
			C285.986,26.508,297.022,24.031,308.149,22.07z M256.148,15c4.604,0,9.203,0.13,13.792,0.39c-0.166,0.047-0.328,0.096-0.493,0.143
			c-0.505,0.143-1.002,0.291-1.504,0.436c-11.782,3.395-23.368,7.409-34.726,12.028c-44.08,17.987-84.116,45.563-116.343,80.636
			c-10.813,11.774-20.759,24.365-29.33,37.87c-8.097-8.009-15.749-16.455-22.814-25.391c-1.483-1.872-2.936-3.767-4.366-5.68
			C105.666,52.446,178.455,15,256.148,15z M24.562,322.932c-6.248-21.653-9.415-44.162-9.415-66.932
			c0-4.536,0.128-9.086,0.382-13.623c0.303,0.308,7.324,7.339,9.613,9.553c26.856,25.966,56.8,48.772,89.301,67.225
			c15.922,9.04,32.448,17.036,49.419,23.908c3.839,1.555,8.212-0.3,9.765-4.14s-0.3-8.212-4.14-9.765
			c-16.09-6.508-31.756-14.079-46.869-22.613c-37.969-21.444-72.282-49.033-102.18-80.727c-1.001-1.061-1.996-2.128-2.987-3.199
			c4.61-33.233,16.311-65.466,34.081-94.007c0.422,0.543,0.862,1.081,1.29,1.622c22.38,28.304,50.027,52.064,80.069,71.899
			c14.34,9.468,29.238,18.091,44.53,25.925c35.154,18.007,64.355,27.708,75.01,30.968c2.214,9.434,7.584,34.65,10.341,67.674
			c0.755,8.772,1.499,17.672,1.499,26.482c0.001,0.029,0.001,0.058,0.002,0.086c-0.883-0.079-1.817-0.167-2.807-0.268
			c-4.844-0.493-9.794-1.17-14.655-1.932c-13.303-2.113-26.444-5.153-39.395-8.844c-3.06-0.872-6.137-2.089-9.253-2.723
			c-3.72-0.759-7.52,1.495-8.65,5.116c-1.216,3.896,1.044,8.183,4.925,9.394c12.805,3.997,25.824,7.333,38.99,9.907
			c6.164,1.202,12.361,2.236,18.587,3.062c3.948,0.523,7.906,0.968,11.874,1.306c0.189,0.016,0.384,0.033,0.567,0.048
			c-0.001,0.284-0.004,0.567-0.006,0.852c-0.119,23.191-2.057,46.671-6.375,69.574c-0.05,0.267-0.099,0.535-0.15,0.802
			c-9.75-0.265-30.103-1.624-56.31-7.787c-12.054-2.835-23.931-6.36-35.59-10.527c-37.529-13.415-71.594-33.061-101.806-58.673
			c-0.051-0.043-0.103-0.087-0.154-0.13C50.38,350.78,37.599,338.058,25.858,324.44C25.425,323.938,24.993,323.437,24.562,322.932z
			 M251.491,466.652c-2.888,10.061-6.398,20.16-10.48,29.88c-88.248-5.473-165.446-58.688-202.62-137.062
			c3.542,3.401,7.161,6.723,10.84,9.975c30.814,27.221,65.571,48.311,103.907,63.022c12.133,4.652,24.521,8.668,37.1,11.934
			c28.801,7.505,51.982,9.547,64.464,10.06C253.715,458.548,252.65,462.611,251.491,466.652z M343.04,479.478
			c-0.184,0.533-0.372,1.065-0.558,1.598c-27.242,10.462-55.968,15.817-85.444,15.922c0.275-0.7,0.549-1.401,0.819-2.104
			c26.865-69.748,26.52-149.441,12.828-222.054c-1.09-5.781-2.289-11.543-3.641-17.269c-0.016-0.069-0.035-0.149-0.051-0.216
			c6.209-6.063,22.147-20.966,45.122-37.781c0.056-0.041,0.112-0.082,0.168-0.122c9.572-6.981,19.459-14.537,29.95-20.081
			c0.213-0.089,3.759,9.52,4.143,10.586c23.356,64.793,26.701,136.816,14.402,204.273
			C356.616,435.059,350.615,457.547,343.04,479.478z M449.35,384.647c-1.637,7.59-3.486,15.136-5.579,22.613
			c-1.608,1.994-3.289,4.01-5.009,6.01c-0.052,0.062-0.104,0.124-0.155,0.187c-21.524,24.917-48.116,45.296-77.619,59.591
			c0.218-0.683,0.424-1.366,0.638-2.049c5.205-16.59,9.524-33.46,12.858-50.526c7.875-40.31,10.169-81.635,6.43-122.549
			c-3.361-36.777-10.986-74.016-25.519-108.085c-0.03-0.07-0.062-0.147-0.091-0.216c1.435-0.811,2.869-1.615,4.319-2.412
			c15.938-8.751,32.478-16.432,49.552-22.693c5.033-1.845,10.111-3.567,15.232-5.152c0.267-0.036,1.017,2.147,1.142,2.431
			c14.756,33.357,24.834,68.475,29.212,104.706C459.503,305.818,457.698,345.933,449.35,384.647z M466.856,373.167
			c0.046-0.268,0.084-0.536,0.13-0.804c4.527-26.459,6.214-53.398,4.966-80.214c-1.195-25.675-5.041-51.243-11.434-76.138
			c-5.327-20.722-12.413-41-21.329-60.454c-0.046-0.1-0.094-0.206-0.14-0.305c0.781-0.198,1.561-0.401,2.342-0.592
			c7.718-1.888,15.508-3.409,23.355-4.646c1.077-0.17,6.009-0.847,7.4-1.017c16.371,33.018,25.003,69.9,25.003,107.003
			C497.149,297.721,486.768,337.585,466.856,373.167z"/>
	</g>
</g>
<g>
</g>
<g>
</g>
<g>
</g>
<g>
</g>
<g>
</g>
<g>
</g>
<g>
</g>
<g>
</g>
<g>
</g>
<g>
</g>
<g>
</g>
<g>
</g>
<g>
</g>
<g>
</g>
<g>
</g>
</svg>
